<?xml version="1.0" encoding="UTF-8"?>
<svg xmlns="http://www.w3.org/2000/svg" xmlns:xlink="http://www.w3.org/1999/xlink" viewBox="0 0 50 50" width="50px" height="50px">
<g id="surface935592">
<path style=" stroke:none;fill-rule:nonzero;fill:rgb(100%,100%,100%);fill-opacity:1;" d="M 12 3 C 7.039062 3 3 7.039062 3 12 L 3 25.378906 L 16.421875 32.089844 C 16.921875 32.320312 17.140625 32.917969 16.910156 33.417969 C 16.738281 33.789062 16.378906 34 16 34 C 15.859375 34 15.71875 33.96875 15.578125 33.910156 L 3 27.617188 L 3 38 C 3 42.960938 7.039062 47 12 47 L 38 47 C 42.960938 47 47 42.960938 47 38 L 47 12 C 47 7.039062 42.960938 3 38 3 Z M 12 5 L 38 5 C 41.859375 5 45 8.140625 45 12 L 45 38 C 45 41.859375 41.859375 45 38 45 L 12 45 C 8.140625 45 5 41.859375 5 38 L 5 30.859375 L 9.019531 32.871094 C 9.007812 33.078125 9 33.289062 9 33.5 C 9 37.640625 12.359375 41 16.5 41 C 20.640625 41 24 37.640625 24 33.5 C 24 32.648438 23.859375 31.820312 23.578125 31.027344 L 28.328125 27.449219 C 29.339844 27.820312 30.398438 28 31.5 28 C 36.738281 28 41 23.738281 41 18.5 C 41 13.261719 36.738281 9 31.5 9 C 26.261719 9 22 13.261719 22 18.5 C 22 19.621094 22.191406 20.710938 22.570312 21.75 L 19.121094 26.472656 C 18.289062 26.160156 17.398438 26 16.5 26 C 14.761719 26 13.160156 26.589844 11.890625 27.589844 L 5 24.148438 L 5 12 C 5 8.140625 8.140625 5 12 5 Z M 31.5 11 C 35.640625 11 39 14.359375 39 18.5 C 39 22.640625 35.640625 26 31.5 26 C 30.46875 26 29.488281 25.800781 28.578125 25.402344 C 28.25 25.25 27.871094 25.300781 27.578125 25.507812 L 21.757812 29.902344 C 21.378906 30.191406 21.261719 30.699219 21.460938 31.132812 C 21.820312 31.871094 22 32.671875 22 33.5 C 22 36.53125 19.53125 39 16.5 39 C 13.601562 39 11.199219 36.730469 11.019531 33.871094 L 14.691406 35.699219 L 14.722656 35.710938 L 14.742188 35.722656 C 15.140625 35.910156 15.558594 36 16 36 C 17.171875 36 18.242188 35.320312 18.722656 34.261719 C 19.410156 32.769531 18.769531 31 17.289062 30.289062 L 13.960938 28.632812 C 14.722656 28.230469 15.578125 28 16.5 28 C 17.378906 28 18.21875 28.199219 19 28.601562 C 19.441406 28.828125 19.980469 28.699219 20.269531 28.300781 L 23.371094 24.0625 L 24.511719 22.480469 C 24.71875 22.199219 24.769531 21.820312 24.621094 21.492188 C 24.210938 20.550781 24 19.539062 24 18.5 C 24 14.359375 27.359375 11 31.5 11 Z M 31.5 13 C 28.472656 13 26 15.472656 26 18.5 C 26 21.527344 28.472656 24 31.5 24 C 34.527344 24 37 21.527344 37 18.5 C 37 15.472656 34.527344 13 31.5 13 Z M 31.5 15 C 33.445312 15 35 16.554688 35 18.5 C 35 20.445312 33.445312 22 31.5 22 C 29.554688 22 28 20.445312 28 18.5 C 28 16.554688 29.554688 15 31.5 15 Z M 31.5 15 "/>
</g>
</svg>
